<mxfile host="app.diagrams.net" modified="2023-05-11T16:16:54.710Z" agent="Mozilla/5.0 (Windows NT 10.0; Win64; x64; rv:109.0) Gecko/20100101 Firefox/113.0" etag="lswULBJubuanrRFhSoAz" version="21.1.4" type="device">
  <diagram name="Seite-1" id="N_JpHSxSInf4lYdC6xoE">
    <mxGraphModel dx="792" dy="745" grid="1" gridSize="10" guides="1" tooltips="1" connect="1" arrows="1" fold="1" page="1" pageScale="1" pageWidth="827" pageHeight="1169" math="0" shadow="0">
      <root>
        <mxCell id="0" />
        <mxCell id="1" parent="0" />
        <mxCell id="cqbJK1PE3UztiRZ7R1Cv-19" value="" style="rounded=1;whiteSpace=wrap;html=1;fillColor=#f5f5f5;fontColor=#333333;strokeColor=#666666;" vertex="1" parent="1">
          <mxGeometry x="197.5" y="170" width="532.5" height="320" as="geometry" />
        </mxCell>
        <mxCell id="cqbJK1PE3UztiRZ7R1Cv-1" value="DB" style="strokeWidth=2;html=1;shape=mxgraph.flowchart.database;whiteSpace=wrap;fillColor=#ffe6cc;strokeColor=#d79b00;" vertex="1" parent="1">
          <mxGeometry x="420" y="410" width="90" height="60" as="geometry" />
        </mxCell>
        <mxCell id="cqbJK1PE3UztiRZ7R1Cv-2" value="&lt;div&gt;«Server&amp;lt;1&amp;gt;»&lt;br&gt;&lt;b&gt;Petstagram&lt;/b&gt;&lt;br&gt;&lt;/div&gt;" style="html=1;dropTarget=0;whiteSpace=wrap;fillColor=#dae8fc;strokeColor=#6c8ebf;" vertex="1" parent="1">
          <mxGeometry x="230" y="280" width="140" height="70" as="geometry" />
        </mxCell>
        <mxCell id="cqbJK1PE3UztiRZ7R1Cv-3" value="" style="shape=module;jettyWidth=8;jettyHeight=4;" vertex="1" parent="cqbJK1PE3UztiRZ7R1Cv-2">
          <mxGeometry x="1" width="20" height="20" relative="1" as="geometry">
            <mxPoint x="-27" y="7" as="offset" />
          </mxGeometry>
        </mxCell>
        <mxCell id="cqbJK1PE3UztiRZ7R1Cv-4" value="&lt;div&gt;«Client»&lt;br&gt;&lt;b&gt;Web-Browser&lt;/b&gt;&lt;br&gt;&lt;/div&gt;" style="html=1;dropTarget=0;whiteSpace=wrap;fillColor=#f8cecc;strokeColor=#b85450;" vertex="1" parent="1">
          <mxGeometry x="310" y="40" width="140" height="70" as="geometry" />
        </mxCell>
        <mxCell id="cqbJK1PE3UztiRZ7R1Cv-5" value="" style="shape=module;jettyWidth=8;jettyHeight=4;" vertex="1" parent="cqbJK1PE3UztiRZ7R1Cv-4">
          <mxGeometry x="1" width="20" height="20" relative="1" as="geometry">
            <mxPoint x="-27" y="7" as="offset" />
          </mxGeometry>
        </mxCell>
        <mxCell id="cqbJK1PE3UztiRZ7R1Cv-6" value="&lt;div&gt;«LB»&lt;br&gt;&lt;b&gt;Load Balancer&lt;/b&gt;&lt;br&gt;&lt;/div&gt;" style="html=1;dropTarget=0;whiteSpace=wrap;fillColor=#fff2cc;strokeColor=#d6b656;" vertex="1" parent="1">
          <mxGeometry x="310" y="170" width="140" height="70" as="geometry" />
        </mxCell>
        <mxCell id="cqbJK1PE3UztiRZ7R1Cv-7" value="" style="shape=module;jettyWidth=8;jettyHeight=4;" vertex="1" parent="cqbJK1PE3UztiRZ7R1Cv-6">
          <mxGeometry x="1" width="20" height="20" relative="1" as="geometry">
            <mxPoint x="-27" y="7" as="offset" />
          </mxGeometry>
        </mxCell>
        <mxCell id="cqbJK1PE3UztiRZ7R1Cv-8" value="&lt;div&gt;«Server&amp;lt;2&amp;gt;»&lt;br&gt;&lt;b&gt;Petstagram&lt;/b&gt;&lt;br&gt;&lt;/div&gt;" style="html=1;dropTarget=0;whiteSpace=wrap;fillColor=#dae8fc;strokeColor=#6c8ebf;" vertex="1" parent="1">
          <mxGeometry x="390" y="280" width="140" height="70" as="geometry" />
        </mxCell>
        <mxCell id="cqbJK1PE3UztiRZ7R1Cv-9" value="" style="shape=module;jettyWidth=8;jettyHeight=4;" vertex="1" parent="cqbJK1PE3UztiRZ7R1Cv-8">
          <mxGeometry x="1" width="20" height="20" relative="1" as="geometry">
            <mxPoint x="-27" y="7" as="offset" />
          </mxGeometry>
        </mxCell>
        <mxCell id="cqbJK1PE3UztiRZ7R1Cv-12" value="&lt;div&gt;«LB»&lt;br&gt;&lt;b&gt;Load Balancer&lt;/b&gt;&lt;br&gt;&lt;/div&gt;" style="html=1;dropTarget=0;whiteSpace=wrap;fillColor=#fff2cc;strokeColor=#d6b656;" vertex="1" parent="1">
          <mxGeometry x="540" y="170" width="140" height="70" as="geometry" />
        </mxCell>
        <mxCell id="cqbJK1PE3UztiRZ7R1Cv-13" value="" style="shape=module;jettyWidth=8;jettyHeight=4;" vertex="1" parent="cqbJK1PE3UztiRZ7R1Cv-12">
          <mxGeometry x="1" width="20" height="20" relative="1" as="geometry">
            <mxPoint x="-27" y="7" as="offset" />
          </mxGeometry>
        </mxCell>
        <mxCell id="cqbJK1PE3UztiRZ7R1Cv-14" value="&lt;div&gt;«Server&amp;lt;n&amp;gt;»&lt;br&gt;&lt;b&gt;Petstagram&lt;/b&gt;&lt;br&gt;&lt;/div&gt;" style="html=1;dropTarget=0;whiteSpace=wrap;fillColor=#dae8fc;strokeColor=#6c8ebf;" vertex="1" parent="1">
          <mxGeometry x="550" y="280" width="140" height="70" as="geometry" />
        </mxCell>
        <mxCell id="cqbJK1PE3UztiRZ7R1Cv-15" value="" style="shape=module;jettyWidth=8;jettyHeight=4;" vertex="1" parent="cqbJK1PE3UztiRZ7R1Cv-14">
          <mxGeometry x="1" width="20" height="20" relative="1" as="geometry">
            <mxPoint x="-27" y="7" as="offset" />
          </mxGeometry>
        </mxCell>
        <mxCell id="cqbJK1PE3UztiRZ7R1Cv-16" value="" style="endArrow=classic;startArrow=classic;html=1;rounded=0;exitX=0.5;exitY=0;exitDx=0;exitDy=0;entryX=0.5;entryY=1;entryDx=0;entryDy=0;" edge="1" parent="1" source="cqbJK1PE3UztiRZ7R1Cv-6" target="cqbJK1PE3UztiRZ7R1Cv-4">
          <mxGeometry width="50" height="50" relative="1" as="geometry">
            <mxPoint x="390" y="320" as="sourcePoint" />
            <mxPoint x="440" y="270" as="targetPoint" />
          </mxGeometry>
        </mxCell>
        <mxCell id="cqbJK1PE3UztiRZ7R1Cv-17" value="&lt;div&gt;«DNS»&lt;br&gt;&lt;b&gt;domain name system&lt;/b&gt;&lt;br&gt;&lt;/div&gt;" style="html=1;dropTarget=0;whiteSpace=wrap;fillColor=#d5e8d4;strokeColor=#82b366;" vertex="1" parent="1">
          <mxGeometry x="560" y="40" width="140" height="70" as="geometry" />
        </mxCell>
        <mxCell id="cqbJK1PE3UztiRZ7R1Cv-18" value="" style="shape=module;jettyWidth=8;jettyHeight=4;" vertex="1" parent="cqbJK1PE3UztiRZ7R1Cv-17">
          <mxGeometry x="1" width="20" height="20" relative="1" as="geometry">
            <mxPoint x="-27" y="7" as="offset" />
          </mxGeometry>
        </mxCell>
        <mxCell id="cqbJK1PE3UztiRZ7R1Cv-20" value="system cluster" style="text;html=1;strokeColor=none;fillColor=none;align=center;verticalAlign=middle;whiteSpace=wrap;rounded=0;" vertex="1" parent="1">
          <mxGeometry x="230" y="450" width="60" height="30" as="geometry" />
        </mxCell>
        <mxCell id="cqbJK1PE3UztiRZ7R1Cv-21" value="" style="endArrow=classic;startArrow=classic;html=1;rounded=0;exitX=1;exitY=0.5;exitDx=0;exitDy=0;entryX=0;entryY=0.5;entryDx=0;entryDy=0;" edge="1" parent="1" source="cqbJK1PE3UztiRZ7R1Cv-4" target="cqbJK1PE3UztiRZ7R1Cv-17">
          <mxGeometry width="50" height="50" relative="1" as="geometry">
            <mxPoint x="390" y="180" as="sourcePoint" />
            <mxPoint x="390" y="90" as="targetPoint" />
          </mxGeometry>
        </mxCell>
        <mxCell id="cqbJK1PE3UztiRZ7R1Cv-22" value="" style="endArrow=classic;startArrow=classic;html=1;rounded=0;exitX=0;exitY=0.5;exitDx=0;exitDy=0;entryX=1;entryY=0.5;entryDx=0;entryDy=0;" edge="1" parent="1" source="cqbJK1PE3UztiRZ7R1Cv-12" target="cqbJK1PE3UztiRZ7R1Cv-6">
          <mxGeometry width="50" height="50" relative="1" as="geometry">
            <mxPoint x="460" y="55" as="sourcePoint" />
            <mxPoint x="610" y="55" as="targetPoint" />
          </mxGeometry>
        </mxCell>
        <mxCell id="cqbJK1PE3UztiRZ7R1Cv-23" value="" style="endArrow=classic;startArrow=classic;html=1;rounded=0;exitX=0.5;exitY=0;exitDx=0;exitDy=0;entryX=0.5;entryY=1;entryDx=0;entryDy=0;" edge="1" parent="1" source="cqbJK1PE3UztiRZ7R1Cv-2" target="cqbJK1PE3UztiRZ7R1Cv-6">
          <mxGeometry width="50" height="50" relative="1" as="geometry">
            <mxPoint x="390" y="180" as="sourcePoint" />
            <mxPoint x="390" y="90" as="targetPoint" />
          </mxGeometry>
        </mxCell>
        <mxCell id="cqbJK1PE3UztiRZ7R1Cv-25" value="" style="endArrow=classic;startArrow=classic;html=1;rounded=0;exitX=0.5;exitY=0;exitDx=0;exitDy=0;entryX=0.5;entryY=1;entryDx=0;entryDy=0;" edge="1" parent="1" source="cqbJK1PE3UztiRZ7R1Cv-8" target="cqbJK1PE3UztiRZ7R1Cv-6">
          <mxGeometry width="50" height="50" relative="1" as="geometry">
            <mxPoint x="390" y="180" as="sourcePoint" />
            <mxPoint x="390" y="90" as="targetPoint" />
          </mxGeometry>
        </mxCell>
        <mxCell id="cqbJK1PE3UztiRZ7R1Cv-26" value="" style="endArrow=classic;startArrow=classic;html=1;rounded=0;exitX=0.5;exitY=0;exitDx=0;exitDy=0;entryX=0.5;entryY=1;entryDx=0;entryDy=0;" edge="1" parent="1" source="cqbJK1PE3UztiRZ7R1Cv-14" target="cqbJK1PE3UztiRZ7R1Cv-6">
          <mxGeometry width="50" height="50" relative="1" as="geometry">
            <mxPoint x="470" y="290" as="sourcePoint" />
            <mxPoint x="390" y="250" as="targetPoint" />
          </mxGeometry>
        </mxCell>
        <mxCell id="cqbJK1PE3UztiRZ7R1Cv-27" value="" style="endArrow=classic;startArrow=classic;html=1;rounded=0;exitX=0.5;exitY=0;exitDx=0;exitDy=0;entryX=0.5;entryY=1;entryDx=0;entryDy=0;exitPerimeter=0;" edge="1" parent="1" source="cqbJK1PE3UztiRZ7R1Cv-1" target="cqbJK1PE3UztiRZ7R1Cv-2">
          <mxGeometry width="50" height="50" relative="1" as="geometry">
            <mxPoint x="310" y="290" as="sourcePoint" />
            <mxPoint x="390" y="250" as="targetPoint" />
          </mxGeometry>
        </mxCell>
        <mxCell id="cqbJK1PE3UztiRZ7R1Cv-28" value="" style="endArrow=classic;startArrow=classic;html=1;rounded=0;exitX=0.5;exitY=1;exitDx=0;exitDy=0;entryX=0.5;entryY=0;entryDx=0;entryDy=0;entryPerimeter=0;" edge="1" parent="1" source="cqbJK1PE3UztiRZ7R1Cv-14" target="cqbJK1PE3UztiRZ7R1Cv-1">
          <mxGeometry width="50" height="50" relative="1" as="geometry">
            <mxPoint x="475" y="420" as="sourcePoint" />
            <mxPoint x="310" y="360" as="targetPoint" />
          </mxGeometry>
        </mxCell>
        <mxCell id="cqbJK1PE3UztiRZ7R1Cv-29" value="" style="endArrow=classic;startArrow=classic;html=1;rounded=0;exitX=0.5;exitY=1;exitDx=0;exitDy=0;entryX=0.5;entryY=0;entryDx=0;entryDy=0;entryPerimeter=0;" edge="1" parent="1" source="cqbJK1PE3UztiRZ7R1Cv-8" target="cqbJK1PE3UztiRZ7R1Cv-1">
          <mxGeometry width="50" height="50" relative="1" as="geometry">
            <mxPoint x="630" y="360" as="sourcePoint" />
            <mxPoint x="475" y="420" as="targetPoint" />
          </mxGeometry>
        </mxCell>
      </root>
    </mxGraphModel>
  </diagram>
</mxfile>
